<mxfile host="app.diagrams.net" modified="2021-06-30T16:06:09.381Z" agent="5.0 (Macintosh; Intel Mac OS X 10_15_6) AppleWebKit/605.1.15 (KHTML, like Gecko) Version/14.0.3 Safari/605.1.15" etag="8tMd8xJSHl0sqYK8BpKG" version="14.6.11" type="github">
  <diagram id="pkNSmsubTyXTbNiFbi55" name="第 1 页">
    <mxGraphModel dx="946" dy="558" grid="1" gridSize="10" guides="1" tooltips="1" connect="1" arrows="1" fold="1" page="1" pageScale="1" pageWidth="827" pageHeight="1169" math="0" shadow="0">
      <root>
        <mxCell id="0" />
        <mxCell id="1" parent="0" />
        <mxCell id="SpJIgSV8jjQMJsVGfQ8_-1" value="读操作" style="edgeStyle=orthogonalEdgeStyle;rounded=0;orthogonalLoop=1;jettySize=auto;html=1;fontSize=16;entryX=0.75;entryY=0;entryDx=0;entryDy=0;exitX=0.714;exitY=1;exitDx=0;exitDy=0;exitPerimeter=0;" edge="1" parent="1" source="SpJIgSV8jjQMJsVGfQ8_-5" target="SpJIgSV8jjQMJsVGfQ8_-9">
          <mxGeometry relative="1" as="geometry">
            <mxPoint x="340" y="240" as="sourcePoint" />
          </mxGeometry>
        </mxCell>
        <mxCell id="SpJIgSV8jjQMJsVGfQ8_-2" value="&lt;font color=&quot;#ff3333&quot;&gt;写操作&lt;/font&gt;" style="edgeStyle=orthogonalEdgeStyle;rounded=0;orthogonalLoop=1;jettySize=auto;html=1;entryX=0.25;entryY=0;entryDx=0;entryDy=0;fontSize=16;exitX=0.283;exitY=1.013;exitDx=0;exitDy=0;exitPerimeter=0;fillColor=#fa6800;strokeColor=#C73500;" edge="1" parent="1" source="SpJIgSV8jjQMJsVGfQ8_-5" target="SpJIgSV8jjQMJsVGfQ8_-9">
          <mxGeometry x="-0.006" relative="1" as="geometry">
            <mxPoint as="offset" />
          </mxGeometry>
        </mxCell>
        <mxCell id="SpJIgSV8jjQMJsVGfQ8_-3" value="读操作" style="rounded=0;orthogonalLoop=1;jettySize=auto;html=1;fontSize=16;exitX=0;exitY=0.5;exitDx=0;exitDy=0;" edge="1" parent="1" source="SpJIgSV8jjQMJsVGfQ8_-5" target="SpJIgSV8jjQMJsVGfQ8_-6">
          <mxGeometry relative="1" as="geometry" />
        </mxCell>
        <mxCell id="SpJIgSV8jjQMJsVGfQ8_-4" value="读操作" style="rounded=0;orthogonalLoop=1;jettySize=auto;html=1;fontSize=16;exitX=1;exitY=0.5;exitDx=0;exitDy=0;" edge="1" parent="1" source="SpJIgSV8jjQMJsVGfQ8_-5" target="SpJIgSV8jjQMJsVGfQ8_-10">
          <mxGeometry relative="1" as="geometry" />
        </mxCell>
        <mxCell id="SpJIgSV8jjQMJsVGfQ8_-5" value="客户端" style="ellipse;whiteSpace=wrap;html=1;fontSize=16;fillColor=#dae8fc;strokeColor=#6c8ebf;" vertex="1" parent="1">
          <mxGeometry x="240" y="100" width="140" height="90" as="geometry" />
        </mxCell>
        <mxCell id="SpJIgSV8jjQMJsVGfQ8_-6" value="从服务器" style="rounded=1;whiteSpace=wrap;html=1;fontSize=16;fillColor=#f5f5f5;strokeColor=#666666;fontColor=#333333;" vertex="1" parent="1">
          <mxGeometry x="10" y="320" width="120" height="60" as="geometry" />
        </mxCell>
        <mxCell id="SpJIgSV8jjQMJsVGfQ8_-7" value="写操作同步" style="edgeStyle=orthogonalEdgeStyle;rounded=0;orthogonalLoop=1;jettySize=auto;html=1;entryX=1;entryY=0.5;entryDx=0;entryDy=0;fontSize=16;fillColor=#fa6800;strokeColor=#C73500;fontColor=#FF3333;" edge="1" parent="1" source="SpJIgSV8jjQMJsVGfQ8_-9" target="SpJIgSV8jjQMJsVGfQ8_-6">
          <mxGeometry relative="1" as="geometry" />
        </mxCell>
        <mxCell id="SpJIgSV8jjQMJsVGfQ8_-8" value="&lt;font color=&quot;#ff3333&quot;&gt;写操作同步&lt;/font&gt;" style="edgeStyle=orthogonalEdgeStyle;rounded=0;orthogonalLoop=1;jettySize=auto;html=1;entryX=0;entryY=0.5;entryDx=0;entryDy=0;fontSize=16;fillColor=#fa6800;strokeColor=#C73500;" edge="1" parent="1" source="SpJIgSV8jjQMJsVGfQ8_-9" target="SpJIgSV8jjQMJsVGfQ8_-10">
          <mxGeometry relative="1" as="geometry" />
        </mxCell>
        <mxCell id="SpJIgSV8jjQMJsVGfQ8_-9" value="主服务器&lt;br&gt;" style="rounded=1;whiteSpace=wrap;html=1;fontSize=16;fillColor=#ffe6cc;strokeColor=#d79b00;" vertex="1" parent="1">
          <mxGeometry x="250" y="320" width="120" height="60" as="geometry" />
        </mxCell>
        <mxCell id="SpJIgSV8jjQMJsVGfQ8_-10" value="从服务器" style="rounded=1;whiteSpace=wrap;html=1;fontSize=16;fillColor=#f5f5f5;strokeColor=#666666;fontColor=#333333;" vertex="1" parent="1">
          <mxGeometry x="490" y="320" width="120" height="60" as="geometry" />
        </mxCell>
      </root>
    </mxGraphModel>
  </diagram>
</mxfile>
